<svg width="900" height="900" viewBox="0 0 900 900" fill="#ffdea8" fill-opacity="0.4" xmlns="http://www.w3.org/2000/svg">
<ellipse cx="285.036" cy="442.398" rx="59.0837" ry="92.2953" transform="rotate(-18.2671 285.036 442.398)"/>
<ellipse cx="615.336" cy="473.704" rx="59.0837" ry="92.2953" transform="rotate(17.9596 615.336 473.704)"/>
<ellipse cx="386.446" cy="303.96" rx="59.6476" ry="103.289" transform="rotate(-8.48683 386.446 303.96)"/>
<ellipse cx="526.969" cy="313.324" rx="59.6476" ry="103.289" transform="rotate(13.5265 526.969 313.324)"/>
<path d="M419.689 471.342C340.401 504.981 277.243 638.357 296.058 674.344C316.408 713.268 358.086 702.425 397.515 692.075C436.406 681.866 474.169 698.142 513.805 704.904C538.503 709.118 556.734 704.045 568.822 692.946C594.967 668.942 582.841 626.466 569.781 593.463C553.9 553.33 526.668 502.49 480.364 476.164C461.857 465.642 439.287 463.028 419.689 471.342Z"/>
</svg>
