<svg width="900" height="900" fill="#ffdea8" fill-opacity=".4" xmlns="http://www.w3.org/2000/svg"><ellipse cx="285.036" cy="442.398" rx="59.084" ry="92.295" transform="rotate(-18.267 285.036 442.398)"/><ellipse cx="615.336" cy="473.704" rx="59.084" ry="92.295" transform="rotate(17.96 615.336 473.704)"/><ellipse cx="386.446" cy="303.96" rx="59.648" ry="103.289" transform="rotate(-8.487 386.446 303.96)"/><ellipse cx="526.969" cy="313.324" rx="59.648" ry="103.289" transform="rotate(13.527 526.969 313.324)"/><path d="M419.689 471.342c-79.288 33.639-142.446 167.015-123.631 203.002 20.35 38.924 62.028 28.081 101.457 17.731 38.891-10.209 76.654 6.067 116.29 12.829 24.698 4.214 42.929-.859 55.017-11.958 26.145-24.004 14.019-66.48.959-99.483-15.881-40.133-43.113-90.973-89.417-117.299-18.507-10.522-41.077-13.136-60.675-4.822Z"/></svg>